<svg version="1.1" xmlns="http://www.w3.org/2000/svg" xmlns:xlink="http://www.w3.org/1999/xlink" x="0px" y="0px" viewBox="0 0 100 100" enable-background="new 0 0 100 100" xml:space="preserve">
<path fill="#000000" d="M98.662,33.406c0.739,0,1.338-0.599,1.338-1.337s-0.599-1.337-1.338-1.337H86.753v-12.7h11.909
	c0.739,0,1.338-0.599,1.338-1.337c0-0.738-0.599-1.337-1.338-1.337H86.753V1.337C86.753,0.599,86.154,0,85.416,0
	s-1.338,0.599-1.338,1.337v14.02H51.857V1.337c0-0.739-0.6-1.337-1.338-1.337s-1.337,0.599-1.337,1.337v14.02H16.96V1.337
	C16.96,0.599,16.362,0,15.623,0c-0.738,0-1.337,0.599-1.337,1.337v14.02H1.337C0.599,15.357,0,15.956,0,16.694
	c0,0.739,0.599,1.337,1.337,1.337h12.948v12.7H1.337C0.599,30.731,0,31.33,0,32.069s0.599,1.337,1.337,1.337h12.948v12.7H1.337
	C0.599,46.106,0,46.705,0,47.443c0,0.739,0.599,1.337,1.337,1.337h12.948v12.699H1.337c-0.739,0-1.337,0.6-1.337,1.338
	s0.599,1.337,1.337,1.337h12.948v10.991H1.337c-0.739,0-1.337,0.6-1.337,1.338s0.599,1.337,1.337,1.337h12.948v14.021
	c0,0.738,0.599,1.337,1.337,1.337s1.337-0.599,1.337-1.337V77.82h32.222v14.021c0,0.738,0.599,1.337,1.337,1.337
	c0.738,0,1.337-0.599,1.337-1.337V77.82h32.222v14.021c0,0.738,0.6,1.337,1.338,1.337s1.337-0.599,1.337-1.337V77.82h11.909
	c0.739,0,1.338-0.599,1.338-1.337s-0.599-1.338-1.338-1.338H86.753V64.154h11.909c0.739,0,1.338-0.599,1.338-1.337
	s-0.599-1.338-1.338-1.338H86.753V48.78h11.909c0.739,0,1.338-0.599,1.338-1.337c0-0.738-0.599-1.337-1.338-1.337H86.753v-12.7
	H98.662L98.662,33.406z M84.078,18.032v12.7H51.857v-12.7H84.078L84.078,18.032z M16.96,18.032h32.222v12.7H16.96V18.032z
	 M16.96,33.406h32.222v12.7H16.96V33.406z M16.96,48.78h32.222v12.699H16.96V48.78z M16.96,75.146V64.154h32.222v10.991H16.96z
	 M84.078,75.146H51.857V64.154h32.221V75.146L84.078,75.146z M84.078,61.479H51.857V48.78h32.221V61.479L84.078,61.479z
	 M84.078,46.106H51.857v-12.7h32.221V46.106L84.078,46.106z"/>
</svg>
